<svg width="20" height="20" viewBox="0 0 20 20" fill="none" xmlns="http://www.w3.org/2000/svg">
<path d="M7.0013 14.1666L10.0013 11.1666L13.0013 14.1666L14.168 13L11.168 9.99996L14.168 6.99996L13.0013 5.83329L10.0013 8.83329L7.0013 5.83329L5.83464 6.99996L8.83464 9.99996L5.83464 13L7.0013 14.1666ZM10.0013 18.3333C8.84852 18.3333 7.76519 18.1145 6.7513 17.677C5.73741 17.2395 4.85547 16.6458 4.10547 15.8958C3.35547 15.1458 2.76172 14.2638 2.32422 13.25C1.88672 12.2361 1.66797 11.1527 1.66797 9.99996C1.66797 8.84718 1.88672 7.76385 2.32422 6.74996C2.76172 5.73607 3.35547 4.85413 4.10547 4.10413C4.85547 3.35413 5.73741 2.76038 6.7513 2.32288C7.76519 1.88538 8.84852 1.66663 10.0013 1.66663C11.1541 1.66663 12.2374 1.88538 13.2513 2.32288C14.2652 2.76038 15.1471 3.35413 15.8971 4.10413C16.6471 4.85413 17.2409 5.73607 17.6784 6.74996C18.1159 7.76385 18.3346 8.84718 18.3346 9.99996C18.3346 11.1527 18.1159 12.2361 17.6784 13.25C17.2409 14.2638 16.6471 15.1458 15.8971 15.8958C15.1471 16.6458 14.2652 17.2395 13.2513 17.677C12.2374 18.1145 11.1541 18.3333 10.0013 18.3333ZM10.0013 16.6666C11.8624 16.6666 13.4388 16.0208 14.7305 14.7291C16.0221 13.4375 16.668 11.8611 16.668 9.99996C16.668 8.13885 16.0221 6.56246 14.7305 5.27079C13.4388 3.97913 11.8624 3.33329 10.0013 3.33329C8.14019 3.33329 6.5638 3.97913 5.27214 5.27079C3.98047 6.56246 3.33464 8.13885 3.33464 9.99996C3.33464 11.8611 3.98047 13.4375 5.27214 14.7291C6.5638 16.0208 8.14019 16.6666 10.0013 16.6666Z" fill="#FF7B00"/>
</svg>
