<svg width="20" height="20" viewBox="0 0 20 20" fill="none" xmlns="http://www.w3.org/2000/svg">
<path d="M14.1654 6.66671V4.16671C14.1654 3.94569 14.0776 3.73373 13.9213 3.57745C13.765 3.42117 13.553 3.33337 13.332 3.33337H4.9987C4.55667 3.33337 4.13275 3.50897 3.82019 3.82153C3.50763 4.13409 3.33203 4.55801 3.33203 5.00004M3.33203 5.00004C3.33203 5.44207 3.50763 5.86599 3.82019 6.17855C4.13275 6.49111 4.55667 6.66671 4.9987 6.66671H14.9987C15.2197 6.66671 15.4317 6.7545 15.588 6.91079C15.7442 7.06707 15.832 7.27903 15.832 7.50004V10M3.33203 5.00004V15C3.33203 15.4421 3.50763 15.866 3.82019 16.1786C4.13275 16.4911 4.55667 16.6667 4.9987 16.6667H14.9987C15.2197 16.6667 15.4317 16.5789 15.588 16.4226C15.7442 16.2663 15.832 16.0544 15.832 15.8334V13.3334M16.6654 10V13.3334H13.332C12.89 13.3334 12.4661 13.1578 12.1535 12.8452C11.841 12.5327 11.6654 12.1087 11.6654 11.6667C11.6654 11.2247 11.841 10.8008 12.1535 10.4882C12.4661 10.1756 12.89 10 13.332 10H16.6654Z" stroke="#448AFF" stroke-width="1.67" stroke-linecap="round" stroke-linejoin="round"/>
</svg>
