<svg width="20" height="20" viewBox="0 0 20 20" fill="none" xmlns="http://www.w3.org/2000/svg">
<path d="M3.33203 10.8333C4.81794 11.0099 6.20124 11.6813 7.25933 12.7394C8.31742 13.7975 8.98877 15.1808 9.16536 16.6667C9.90196 16.242 10.5181 15.6365 10.9556 14.9075C11.393 14.1784 11.6373 13.3498 11.6654 12.5C13.0646 12.0078 14.2865 11.1117 15.1765 9.92502C16.0665 8.73837 16.5846 7.31446 16.6654 5.83334C16.6654 5.1703 16.402 4.53442 15.9331 4.06558C15.4643 3.59674 14.8284 3.33334 14.1654 3.33334C12.6842 3.4141 11.2603 3.93223 10.0737 4.82222C8.88704 5.71221 7.99094 6.93408 7.4987 8.33334C6.64892 8.36141 5.82033 8.60571 5.09125 9.04315C4.36217 9.4806 3.75669 10.0967 3.33203 10.8333Z" stroke="#E7E7E7" stroke-width="1.25" stroke-linecap="round" stroke-linejoin="round"/>
<path d="M5.83487 11.6667C4.96757 12.1563 4.26625 12.8938 3.82084 13.7846C3.37542 14.6755 3.2062 15.679 3.33487 16.6667C4.32251 16.7953 5.32606 16.6261 6.21689 16.1807C7.10772 15.7353 7.84523 15.034 8.33487 14.1667" stroke="#E7E7E7" stroke-width="1.25" stroke-linecap="round" stroke-linejoin="round"/>
<path d="M11.668 7.49999C11.668 7.721 11.7558 7.93296 11.912 8.08925C12.0683 8.24553 12.2803 8.33332 12.5013 8.33332C12.7223 8.33332 12.9343 8.24553 13.0906 8.08925C13.2468 7.93296 13.3346 7.721 13.3346 7.49999C13.3346 7.27898 13.2468 7.06701 13.0906 6.91073C12.9343 6.75445 12.7223 6.66666 12.5013 6.66666C12.2803 6.66666 12.0683 6.75445 11.912 6.91073C11.7558 7.06701 11.668 7.27898 11.668 7.49999Z" stroke="#E7E7E7" stroke-width="1.25" stroke-linecap="round" stroke-linejoin="round"/>
</svg>
