<svg width="20" height="20" viewBox="0 0 20 20" fill="none" xmlns="http://www.w3.org/2000/svg">
<path d="M11.2083 9.62472L12.9167 7.91639M8.33333 10.8331C8.33333 11.2751 8.50893 11.699 8.82149 12.0116C9.13405 12.3241 9.55797 12.4997 10 12.4997C10.442 12.4997 10.866 12.3241 11.1785 12.0116C11.4911 11.699 11.6667 11.2751 11.6667 10.8331C11.6667 10.391 11.4911 9.9671 11.1785 9.65454C10.866 9.34198 10.442 9.16639 10 9.16639C9.55797 9.16639 9.13405 9.34198 8.82149 9.65454C8.50893 9.9671 8.33333 10.391 8.33333 10.8331ZM5.33333 16.6664C4.11512 15.6981 3.22826 14.3749 2.79565 12.8801C2.36304 11.3853 2.4061 9.79296 2.91887 8.32373C3.43164 6.8545 4.38873 5.58115 5.65749 4.68014C6.92625 3.77913 8.44386 3.29509 10 3.29509C11.5561 3.29509 13.0737 3.77913 14.3425 4.68014C15.6113 5.58115 16.5684 6.8545 17.0811 8.32373C17.5939 9.79296 17.637 11.3853 17.2044 12.8801C16.7717 14.3749 15.8849 15.6981 14.6667 16.6664H5.33333Z" stroke="#FDFDFD" stroke-width="1.67" stroke-linecap="round" stroke-linejoin="round"/>
</svg>
