<svg width="20" height="20" viewBox="0 0 20 20" fill="none" xmlns="http://www.w3.org/2000/svg">
<path d="M14.1654 6.66665V4.16665C14.1654 3.94563 14.0776 3.73367 13.9213 3.57739C13.765 3.42111 13.553 3.33331 13.332 3.33331H4.9987C4.55667 3.33331 4.13275 3.50891 3.82019 3.82147C3.50763 4.13403 3.33203 4.55795 3.33203 4.99998M3.33203 4.99998C3.33203 5.44201 3.50763 5.86593 3.82019 6.17849C4.13275 6.49105 4.55667 6.66665 4.9987 6.66665H14.9987C15.2197 6.66665 15.4317 6.75444 15.588 6.91072C15.7442 7.067 15.832 7.27897 15.832 7.49998V9.99998M3.33203 4.99998V15C3.33203 15.442 3.50763 15.8659 3.82019 16.1785C4.13275 16.4911 4.55667 16.6666 4.9987 16.6666H14.9987C15.2197 16.6666 15.4317 16.5788 15.588 16.4226C15.7442 16.2663 15.832 16.0543 15.832 15.8333V13.3333M16.6654 9.99998V13.3333H13.332C12.89 13.3333 12.4661 13.1577 12.1535 12.8452C11.841 12.5326 11.6654 12.1087 11.6654 11.6666C11.6654 11.2246 11.841 10.8007 12.1535 10.4881C12.4661 10.1756 12.89 9.99998 13.332 9.99998H16.6654Z" stroke="#FDFDFD" stroke-width="1.67" stroke-linecap="round" stroke-linejoin="round"/>
</svg>
