<svg width="20" height="20" viewBox="0 0 20 20" fill="none" xmlns="http://www.w3.org/2000/svg">
<path d="M10.865 17.2217C10.1133 17.7758 8.87083 17.5025 8.60417 16.4025C8.5509 16.1827 8.44648 15.9785 8.29941 15.8067C8.15233 15.6348 7.96676 15.5001 7.75779 15.4135C7.54882 15.327 7.32236 15.291 7.09685 15.3084C6.87133 15.3259 6.65313 15.3964 6.46 15.5142C5.17417 16.2975 3.70167 14.8258 4.485 13.5392C4.60258 13.3461 4.67296 13.1281 4.6904 12.9027C4.70785 12.6773 4.67187 12.451 4.58539 12.2422C4.49892 12.0333 4.36438 11.8479 4.19273 11.7008C4.02107 11.5537 3.81714 11.4492 3.5975 11.3958C2.13417 11.0408 2.13417 8.95917 3.5975 8.60417C3.81733 8.5509 4.02148 8.44648 4.19333 8.29941C4.36518 8.15233 4.49988 7.96676 4.58645 7.75779C4.67303 7.54882 4.70904 7.32236 4.69156 7.09685C4.67407 6.87133 4.60359 6.65313 4.48583 6.46C3.7025 5.17417 5.17417 3.70167 6.46083 4.485C7.29417 4.99167 8.37417 4.54333 8.60417 3.5975C8.95917 2.13417 11.0408 2.13417 11.3958 3.5975C11.4491 3.81733 11.5535 4.02148 11.7006 4.19333C11.8477 4.36518 12.0332 4.49988 12.2422 4.58645C12.4512 4.67303 12.6776 4.70904 12.9032 4.69156C13.1287 4.67407 13.3469 4.60359 13.54 4.48583C14.8258 3.7025 16.2983 5.17417 15.515 6.46083C15.3327 6.7602 15.2661 7.11589 15.3278 7.46092C15.3895 7.80595 15.5753 8.11653 15.85 8.33417M12.5 10C12.4998 9.45873 12.324 8.93211 11.9989 8.49932C11.6738 8.06652 11.2171 7.75092 10.6972 7.59996C10.1774 7.449 9.62266 7.47082 9.11631 7.66215C8.60997 7.85349 8.1794 8.20399 7.88931 8.66099C7.59923 9.11799 7.46531 9.65679 7.50767 10.1964C7.55003 10.7361 7.76639 11.2474 8.12424 11.6535C8.48208 12.0596 8.96207 12.3386 9.49207 12.4486C10.0221 12.5586 10.5734 12.4936 11.0633 12.2634M17.5 12.5H15.4167C15.0851 12.5 14.7672 12.6317 14.5328 12.8661C14.2984 13.1005 14.1667 13.4185 14.1667 13.75C14.1667 14.0815 14.2984 14.3995 14.5328 14.6339C14.7672 14.8683 15.0851 15 15.4167 15H16.25C16.5815 15 16.8995 15.1317 17.1339 15.3661C17.3683 15.6005 17.5 15.9185 17.5 16.25C17.5 16.5815 17.3683 16.8995 17.1339 17.1339C16.8995 17.3683 16.5815 17.5 16.25 17.5H14.1667M15.8333 17.5V18.3333M15.8333 11.6667V12.5" stroke="#FDFDFD" stroke-width="1.67" stroke-linecap="round" stroke-linejoin="round"/>
</svg>
