<svg width="20" height="20" viewBox="0 0 20 20" fill="none" xmlns="http://www.w3.org/2000/svg">
<path d="M7.5013 4.16667H5.83464C5.39261 4.16667 4.96868 4.34226 4.65612 4.65482C4.34356 4.96738 4.16797 5.39131 4.16797 5.83333V15.8333C4.16797 16.2754 4.34356 16.6993 4.65612 17.0118C4.96868 17.3244 5.39261 17.5 5.83464 17.5H14.168C14.61 17.5 15.0339 17.3244 15.3465 17.0118C15.659 16.6993 15.8346 16.2754 15.8346 15.8333V5.83333C15.8346 5.39131 15.659 4.96738 15.3465 4.65482C15.0339 4.34226 14.61 4.16667 14.168 4.16667H12.5013M7.5013 4.16667C7.5013 3.72464 7.6769 3.30072 7.98946 2.98816C8.30202 2.67559 8.72594 2.5 9.16797 2.5H10.8346C11.2767 2.5 11.7006 2.67559 12.0131 2.98816C12.3257 3.30072 12.5013 3.72464 12.5013 4.16667M7.5013 4.16667C7.5013 4.60869 7.6769 5.03262 7.98946 5.34518C8.30202 5.65774 8.72594 5.83333 9.16797 5.83333H10.8346C11.2767 5.83333 11.7006 5.65774 12.0131 5.34518C12.3257 5.03262 12.5013 4.60869 12.5013 4.16667M7.5013 14.1667V10M10.0013 14.1667V13.3333M12.5013 14.1667V11.6667" stroke="#FDFDFD" stroke-width="1.67" stroke-linecap="round" stroke-linejoin="round"/>
</svg>
